400 0 1 0        
7 Unknown 13 ACIS 5.0.1 NT 24 Wed Oct 25 22:20:17 2017
1000 9.9999999999999995e-007 1e-010 
-0 body $-1 $2 $-1 $1 #                                                                                            
-1 transform $-1 1 0 0 0 1 0 0 0 1 0 0 0 1 0 0 0 #
-2 lump $-1 $-1 $3 $0 #
-3 shell $-1 $-1 $-1 $4 $-1 $2 #
-4 face $-1 $11 $6 $3 $-1 $5 forward single #
-5 spline-surface $-1 forward { exactsur nubs 1 1 open open none none 2 2
        -3.9397216963785868 1 32.214810782560477 1 
        -26.756636807445723 1 7.9572043892246827 1 
        -42.283217009172901 15.251571485237399 17.399999999999999 
        -6.1286845302338406 15.251571485237399 17.399999999999999 
        -42.283217009172901 49.965412681907807 17.399999999999999 
        -6.1286845302338406 49.965412681907807 17.399999999999999 
        0
        0
        0
        0
        0
        0
        0
        F -3.9397216963785868 F 32.214810782560477 F -26.756636807445723 F 7.9572043892246827 } F -3.9397216963785868 F 32.214810782560477 F -26.756636807445723 F 7.9572043892246827 #
-6 loop $-1 $-1 $7 $4 #
-7 coedge $-1 $9 $9 $34 $42 forward $6 $8 #
-8 pcurve $-1 0 forward { exppc nubs 3 open 4
        0 3 21.717454924872087 3 43.434909849744173 3 65.15236477461626 3 
        0 0 
        -4.8761874021819764 -5.7280993833088658 
        -4.0089343607409624 -14.629086324936333 
        -1.9083076745700227 -20.116116490202941 
        0.19231901160091702 -25.603146655469551 
        3.5263193425017816 -27.676220044375306 
        6.9297139036535098 -25.660701840262945 
        10.333108464805237 -23.645183636150584 
        13.805897256207828 -17.541073839020111 
        18.735592145298501 -12.868460767713188 
        0
        spline 0 { ref 0 } F -3.9397216963785868 F 32.214810782560477 F -26.756636807445723 F 7.9572043892246827 
        } 0 0 #
-9 coedge $-1 $7 $7 $25 $48 forward $6 $10 #
-10 pcurve $-1 0 forward { exppc nubs 3 open 4
        65.15236477461626 3 86.869819699488346 3 108.58727462436043 3 130.30472954923252 3 
        18.735592145298501 -12.868460767713188 
        23.665287034389173 -8.195847696406263 
        30.051888021167926 -4.9547313509228887 
        31.524680862198174 -1.242150171726383 
        32.997473703228422 2.4704310074701237 
        29.55645839851017 6.654477020379761 
        22.526136823248564 7.4688941143394487 
        15.49581524798695 8.2833112082991356 
        4.8761874021819835 5.7280993833088729 
        0 0 
        0
        spline 0 { ref 0 } F -3.9397216963785868 F 32.214810782560477 F -26.756636807445723 F 7.9572043892246827 
        } 0 0 #
-11 face $-1 $18 $13 $3 $-1 $12 forward single #
-12 spline-surface $-1 forward { exactsur nubs 1 1 open open none none 2 2
        -3.9397216963785859 1 32.214810782560477 1 
        -7.9572043892246667 1 26.756636807445741 1 
        -42.283217009172901 49.9654126819078 0 
        -6.1286845302338406 49.9654126819078 0 
        -42.283217009172901 15.251571485237395 0 
        -6.1286845302338406 15.251571485237395 0 
        0
        0
        0
        0
        0
        0
        0
        F -3.9397216963785859 F 32.214810782560477 F -7.9572043892246667 F 26.756636807445741 } F -3.9397216963785859 F 32.214810782560477 F -7.9572043892246667 F 26.756636807445741 #
-13 loop $-1 $-1 $14 $11 #
-14 coedge $-1 $16 $16 $21 $44 forward $13 $15 #
-15 pcurve $-1 0 forward { exppc nubs 3 open 4
        -130.30472954923252 3 -108.58727462436043 3 -86.869819699488346 3 -65.15236477461626 3 
        0 0 
        4.8761874021819835 -5.7280993833088587 
        15.49581524798695 -8.2833112082991214 
        22.52613682324856 -7.4688941143394336 
        29.55645839851017 -6.6544770203797459 
        32.997473703228422 -2.4704310074701086 
        31.524680862198174 1.2421501717263976 
        30.051888021167926 4.9547313509229038 
        23.665287034389173 8.195847696406279 
        18.735592145298501 12.868460767713204 
        0
        spline 0 { ref 3 } F -3.9397216963785859 F 32.214810782560477 F -7.9572043892246667 F 26.756636807445741 
        } 0 0 #
-16 coedge $-1 $14 $14 $38 $50 forward $13 $17 #
-17 pcurve $-1 0 forward { exppc nubs 3 open 4
        -65.15236477461626 3 -43.434909849744173 3 -21.717454924872087 3 -0 3 
        18.735592145298501 12.868460767713204 
        13.805897256207826 17.541073839020129 
        10.333108464805235 23.645183636150602 
        6.9297139036535089 25.660701840262959 
        3.5263193425017811 27.67622004437532 
        0.19231901160091636 25.603146655469565 
        -1.9083076745700231 20.116116490202959 
        -4.0089343607409624 14.629086324936347 
        -4.8761874021819764 5.72809938330888 
        0 0 
        0
        spline 0 { ref 3 } F -3.9397216963785859 F 32.214810782560477 F -7.9572043892246667 F 26.756636807445741 
        } 0 0 #
-18 face $-1 $29 $20 $3 $-1 $19 forward single #
-19 spline-surface $-1 forward { exactsur nubs 3 1 open open none none 4 2
        65.15236477461626 3 86.869819699488346 1 108.58727462436043 1 130.30472954923252 3 
        0 1 17.399999999999999 1 
        -19.60790316749582 29.139747524969938 0 
        -14.678208278405144 33.812360596276861 0 
        -1.9050063048476371 40.294593287243607 0 
        -12.2280522190024 52.84673132597252 0 
        -33.467307910612334 47.736307675991995 0 
        -38.343495312794317 42.008208292683136 0 
        -19.60790316749582 29.139747524969938 17.399999999999999 
        -14.678208278405144 33.812360596276861 17.399999999999999 
        -1.9050063048476371 40.294593287243607 17.399999999999999 
        -12.2280522190024 52.84673132597252 17.399999999999999 
        -33.467307910612334 47.736307675991995 17.399999999999999 
        -38.343495312794317 42.008208292683136 17.399999999999999 
        0
        0
        0
        0
        0
        0
        0
        F 65.15236477461626 F 130.30472954923252 F 0 F 17.399999999999999 } F 65.15236477461626 F 130.30472954923252 F 0 F 17.399999999999999 #
-20 loop $-1 $-1 $21 $18 #
-21 coedge $-1 $23 $27 $14 $44 reversed $20 $22 #
-22 pcurve $-1 0 forward { exppc nubs 1 open 2
        65.15236477461626 1 130.30472954923252 1 
        65.15236477461626 0 
        130.30472954923252 0 
        0
        spline 0 { ref 6 } F 65.15236477461626 F 130.30472954923252 F 0 F 17.399999999999999 
        } 0 0 #
-23 coedge $-1 $25 $21 $36 $40 forward $20 $24 #
-24 pcurve $-1 0 forward { exppc nubs 1 open 2
        -0 1 17.399999999999999 1 
        130.30472954923252 0 
        130.30472954923252 17.399999999999999 
        0
        spline 0 { ref 6 } F 65.15236477461626 F 130.30472954923252 F 0 F 17.399999999999999 
        } 0 0 #
-25 coedge $-1 $27 $23 $9 $48 reversed $20 $26 #
-26 pcurve $-1 0 forward { exppc nubs 1 open 2
        -130.30472954923252 1 -65.15236477461626 1 
        130.30472954923252 17.399999999999999 
        65.15236477461626 17.399999999999999 
        0
        spline 0 { ref 6 } F 65.15236477461626 F 130.30472954923252 F 0 F 17.399999999999999 
        } 0 0 #
-27 coedge $-1 $21 $25 $32 $46 reversed $20 $28 #
-28 pcurve $-1 0 forward { exppc nubs 1 open 2
        -17.399999999999999 1 -0 1 
        65.15236477461626 17.399999999999999 
        65.15236477461626 0 
        0
        spline 0 { ref 6 } F 65.15236477461626 F 130.30472954923252 F 0 F 17.399999999999999 
        } 0 0 #
-29 face $-1 $-1 $31 $3 $-1 $30 forward single #
-30 spline-surface $-1 forward { exactsur nubs 3 1 open open none none 4 2
        0 3 21.717454924872087 1 43.434909849744173 1 65.15236477461626 3 
        0 1 17.399999999999999 1 
        -38.343495312794317 42.008208292683122 0 
        -43.219682714976294 36.280108909374256 0 
        -41.485176632094266 18.478135026119322 0 
        -31.483175639391671 12.25891485940206 0 
        -24.537598056586489 24.467134453663011 0 
        -19.60790316749582 29.139747524969934 0 
        -38.343495312794317 42.008208292683122 17.399999999999999 
        -43.219682714976294 36.280108909374256 17.399999999999999 
        -41.485176632094266 18.478135026119322 17.399999999999999 
        -31.483175639391671 12.25891485940206 17.399999999999999 
        -24.537598056586489 24.467134453663011 17.399999999999999 
        -19.60790316749582 29.139747524969934 17.399999999999999 
        0
        0
        0
        0
        0
        0
        0
        F 0 F 65.15236477461626 F 0 F 17.399999999999999 } F 0 F 65.15236477461626 F 0 F 17.399999999999999 #
-31 loop $-1 $-1 $32 $29 #
-32 coedge $-1 $34 $38 $27 $46 forward $31 $33 #
-33 pcurve $-1 0 forward { exppc nubs 1 open 2
        0 1 17.399999999999999 1 
        65.15236477461626 0 
        65.15236477461626 17.399999999999999 
        0
        spline 0 { ref 11 } F 0 F 65.15236477461626 F 0 F 17.399999999999999 
        } 0 0 #
-34 coedge $-1 $36 $32 $7 $42 reversed $31 $35 #
-35 pcurve $-1 0 forward { exppc nubs 1 open 2
        -65.15236477461626 1 -0 1 
        65.15236477461626 17.399999999999999 
        0 17.399999999999999 
        0
        spline 0 { ref 11 } F 0 F 65.15236477461626 F 0 F 17.399999999999999 
        } 0 0 #
-36 coedge $-1 $38 $34 $23 $40 reversed $31 $37 #
-37 pcurve $-1 0 forward { exppc nubs 1 open 2
        -17.399999999999999 1 -0 1 
        0 17.399999999999999 
        0 0 
        0
        spline 0 { ref 11 } F 0 F 65.15236477461626 F 0 F 17.399999999999999 
        } 0 0 #
-38 coedge $-1 $32 $36 $16 $50 reversed $31 $39 #
-39 pcurve $-1 0 forward { exppc nubs 1 open 2
        -0 1 65.15236477461626 1 
        0 0 
        65.15236477461626 0 
        0
        spline 0 { ref 11 } F 0 F 65.15236477461626 F 0 F 17.399999999999999 
        } 0 0 #
-40 edge $-1 $54 $52 $36 $41 forward #
-41 intcurve-curve $-1 forward { exactcur nubs 1 open 2
        0 1 17.399999999999999 1 
        -38.34349531279431 42.008208292683129 0 
        -38.34349531279431 42.008208292683122 17.399999999999999 
        0
        null_surface
        null_surface
        nullbs
        nullbs
        I I
        0
        0
        0
        F 0 F 17.399999999999999 } F 0 F 17.399999999999999 #
-42 edge $-1 $52 $58 $34 $43 forward #
-43 intcurve-curve $-1 forward { exactcur nubs 3 open 4
        0 3 21.717454924872087 1 43.434909849744173 1 65.15236477461626 3 
        -38.34349531279431 42.008208292683122 17.399999999999995 
        -43.219682714976294 36.280108909374256 17.399999999999999 
        -41.485176632094266 18.478135026119322 17.399999999999999 
        -31.483175639391671 12.25891485940206 17.399999999999999 
        -24.537598056586489 24.467134453663011 17.399999999999999 
        -19.60790316749582 29.139747524969934 17.399999999999995 
        0
        null_surface
        null_surface
        nullbs
        nullbs
        I I
        0
        0
        0
        F 0 F 65.15236477461626 } F 0 F 65.15236477461626 #
-44 edge $-1 $54 $56 $21 $45 forward #
-45 intcurve-curve $-1 forward { exactcur nubs 3 open 4
        -130.30472954923252 3 -108.58727462436043 1 -86.869819699488346 1 -65.15236477461626 3 
        -38.34349531279431 42.008208292683129 0 
        -33.467307910612334 47.736307675991995 0 
        -12.2280522190024 52.84673132597252 0 
        -1.9050063048476371 40.294593287243607 0 
        -14.678208278405144 33.812360596276861 0 
        -19.607903167495817 29.139747524969934 0 
        0
        null_surface
        null_surface
        nullbs
        nullbs
        I I
        0
        0
        0
        F -130.30472954923252 F -65.15236477461626 } F -130.30472954923252 F -65.15236477461626 #
-46 edge $-1 $56 $58 $27 $47 forward #
-47 intcurve-curve $-1 forward { exactcur nubs 1 open 2
        0 1 17.399999999999999 1 
        -19.60790316749582 29.139747524969934 0 
        -19.60790316749582 29.139747524969934 17.399999999999995 
        0
        null_surface
        null_surface
        nullbs
        nullbs
        I I
        0
        0
        0
        F 0 F 17.399999999999999 } F 0 F 17.399999999999999 #
-48 edge $-1 $58 $52 $25 $49 forward #
-49 intcurve-curve $-1 forward { exactcur nubs 3 open 4
        65.15236477461626 3 86.869819699488346 1 108.58727462436043 1 130.30472954923252 3 
        -19.60790316749582 29.139747524969934 17.399999999999995 
        -14.678208278405144 33.812360596276861 17.399999999999999 
        -1.9050063048476371 40.294593287243607 17.399999999999999 
        -12.2280522190024 52.84673132597252 17.399999999999999 
        -33.467307910612334 47.736307675991995 17.399999999999999 
        -38.343495312794317 42.008208292683129 17.399999999999999 
        0
        null_surface
        null_surface
        nullbs
        nullbs
        I I
        0
        0
        0
        F 65.15236477461626 F 130.30472954923252 } F 65.15236477461626 F 130.30472954923252 #
-50 edge $-1 $56 $54 $38 $51 forward #
-51 intcurve-curve $-1 forward { exactcur nubs 3 open 4
        -65.15236477461626 3 -43.434909849744173 1 -21.717454924872087 1 -0 3 
        -19.607903167495817 29.139747524969934 0 
        -24.537598056586489 24.467134453663011 0 
        -31.483175639391671 12.25891485940206 0 
        -41.485176632094266 18.478135026119322 0 
        -43.219682714976294 36.280108909374256 0 
        -38.34349531279431 42.008208292683122 0 
        0
        null_surface
        null_surface
        nullbs
        nullbs
        I I
        0
        0
        0
        F -65.15236477461626 F -0 } F -65.15236477461626 F -0 #
-52 vertex $-1 $40 $53 #
-53 point $-1 -38.34349531279431 42.008208292683122 17.399999999999999 #
-54 vertex $-1 $40 $55 #
-55 point $-1 -38.34349531279431 42.008208292683129 0 #
-56 vertex $-1 $46 $57 #
-57 point $-1 -19.607903167495817 29.139747524969934 0 #
-58 vertex $-1 $46 $59 #
-59 point $-1 -19.60790316749582 29.139747524969934 17.399999999999995 #
End-of-ACIS-data
