400 0 1 0        
7 Unknown 13 ACIS 5.0.1 NT 24 Wed Oct 25 22:18:47 2017
1000 9.9999999999999995e-007 1e-010 
-0 body $-1 $2 $-1 $1 #                                                                                            
-1 transform $-1 1 0 0 0 1 0 0 0 1 0 0 0 1 0 0 0 #
-2 lump $-1 $-1 $3 $0 #
-3 shell $-1 $-1 $-1 $4 $-1 $2 #
-4 face $-1 $-1 $6 $3 $-1 $5 forward single #
-5 spline-surface $-1 forward { exactsur nubs 3 1 open open none none 2 2
        0 3 100.04498987955368 3 
        0 1 100 1 
        -48.658474779572899 -47.632406948801702 0 
        -48.658474779572899 -14.299073615468366 1 
        -48.658474779572899 19.034259717864959 2 
        -48.658474779572899 52.367593051198298 3 
        51.341525220427101 -47.632406948801702 0 
        51.341525220427101 -14.299073615468366 1 
        51.341525220427101 19.034259717864959 2 
        51.341525220427101 52.367593051198298 3 
        0
        0
        0
        0
        0
        0
        0
        F 0 F 100.04498987955368 F 0 F 100 } F 0 F 100.04498987955368 F 0 F 100 #
-6 loop $-1 $-1 $7 $4 #
-7 coedge $-1 $9 $13 $-1 $15 forward $6 $8 #
-8 pcurve $-1 0 forward { exppc nubs 1 open 2
        0 1 100.04498987955368 1 
        0 0 
        100.04498987955368 0 
        0
        spline 0 { ref 0 } F 0 F 100.04498987955368 F 0 F 100 
        } 0 0 #
-9 coedge $-1 $11 $7 $-1 $17 forward $6 $10 #
-10 pcurve $-1 0 forward { exppc nubs 1 open 2
        0 1 100 1 
        100.04498987955368 0 
        100.04498987955368 100 
        0
        spline 0 { ref 0 } F 0 F 100.04498987955368 F 0 F 100 
        } 0 0 #
-11 coedge $-1 $13 $9 $-1 $19 forward $6 $12 #
-12 pcurve $-1 0 forward { exppc nubs 1 open 2
        -100.04498987955368 1 0 1 
        100.04498987955368 100 
        0 100 
        0
        spline 0 { ref 0 } F 0 F 100.04498987955368 F 0 F 100 
        } 0 0 #
-13 coedge $-1 $7 $11 $-1 $21 forward $6 $14 #
-14 pcurve $-1 0 forward { exppc nubs 1 open 2
        -100 1 0 1 
        0 100 
        0 0 
        0
        spline 0 { ref 0 } F 0 F 100.04498987955368 F 0 F 100 
        } 0 0 #
-15 edge $-1 $23 $25 $7 $16 forward #
-16 intcurve-curve $-1 forward { exactcur nubs 3 open 2
        0 3 100.04498987955368 3 
        -48.658474779572899 -47.632406948801702 0 
        -48.658474779572899 -14.299073615468366 1 
        -48.658474779572899 19.034259717864959 2 
        -48.658474779572899 52.367593051198298 3 
        0
        null_surface
        null_surface
        nullbs
        nullbs
        I I
        0
        0
        0
        F 0 F 100.04498987955368 } F 0 F 100.04498987955368 #
-17 edge $-1 $25 $27 $9 $18 forward #
-18 intcurve-curve $-1 forward { exactcur nubs 1 open 2
        0 1 100 1 
        -48.658474779572899 52.367593051198298 3 
        51.341525220427101 52.367593051198298 3 
        0
        null_surface
        null_surface
        nullbs
        nullbs
        I I
        0
        0
        0
        F 0 F 100 } F 0 F 100 #
-19 edge $-1 $27 $29 $11 $20 forward #
-20 intcurve-curve $-1 forward { exactcur nubs 3 open 2
        -100.04498987955368 3 -0 3 
        51.341525220427101 52.367593051198298 3 
        51.341525220427101 19.034259717864959 2 
        51.341525220427101 -14.299073615468366 1 
        51.341525220427101 -47.632406948801702 0 
        0
        null_surface
        null_surface
        nullbs
        nullbs
        I I
        0
        0
        0
        F -100.04498987955368 F -0 } F -100.04498987955368 F -0 #
-21 edge $-1 $29 $23 $13 $22 forward #
-22 intcurve-curve $-1 forward { exactcur nubs 1 open 2
        -100 1 -0 1 
        51.341525220427101 -47.632406948801702 0 
        -48.658474779572899 -47.632406948801702 0 
        0
        null_surface
        null_surface
        nullbs
        nullbs
        I I
        0
        0
        0
        F -100 F -0 } F -100 F -0 #
-23 vertex $-1 $15 $24 #
-24 point $-1 -48.658474779572899 -47.632406948801702 0 #
-25 vertex $-1 $15 $26 #
-26 point $-1 -48.658474779572899 52.367593051198298 3 #
-27 vertex $-1 $17 $28 #
-28 point $-1 51.341525220427101 52.367593051198298 3 #
-29 vertex $-1 $19 $30 #
-30 point $-1 51.341525220427101 -47.632406948801702 0 #
End-of-ACIS-data
