400 0 1 0        
7 Unknown 13 ACIS 5.0.1 NT 24 Wed Oct 25 23:41:50 2017
1000 9.9999999999999995e-007 1e-010 
-0 body $-1 $2 $-1 $1 #                                                                                            
-1 transform $-1 1 0 0 0 1 0 0 0 1 0 0 0 1 0 0 0 #
-2 lump $-1 $-1 $3 $0 #
-3 shell $-1 $-1 $-1 $4 $-1 $2 #
-4 face $-1 $15 $6 $3 $-1 $5 forward single #
-5 spline-surface $-1 forward { exactsur nubs 1 1 open open none none 2 2
        -62.913824920473559 1 0.92140699797843251 1 
        0 1 51.762023031707031 1 
        -25.006850886832225 -27.141322730830396 0 
        -6.255366137500932 33.877679668243189 0 
        24.4715783853838 -42.346324049123204 0 
        43.22306313471509 18.672678349950381 0 
        0
        0
        0
        0
        0
        0
        0
        F -62.913824920473559 F 0.92140699797843251 F 0 F 51.762023031707031 } F -62.913824920473559 F 0.92140699797843251 F 0 F 51.762023031707031 #
-6 loop $-1 $-1 $7 $4 #
-7 coedge $-1 $9 $13 $29 $78 forward $6 $8 #
-8 pcurve $-1 0 forward { exppc nubs 1 open 2
        -196.74758876937926 1 -170.52015039053973 1 
        0 0 
        0.2893749987858385 26.225841950753509 
        0
        spline 0 { ref 0 } F -62.913824920473559 F 0.92140699797843251 F 0 F 51.762023031707031 
        } 0 0 #
-9 coedge $-1 $11 $7 $68 $86 forward $6 $10 #
-10 pcurve $-1 0 forward { exppc nubs 1 open 2
        -170.52015039053973 1 -115.83443705866674 1 
        0.2893749987858385 26.225841950753509 
        -48.335129023650367 51.249527754165378 
        0
        spline 0 { ref 0 } F -62.913824920473559 F 0.92140699797843251 F 0 F 51.762023031707031 
        } 0 0 #
-11 coedge $-1 $13 $9 $57 $84 forward $6 $12 #
-12 pcurve $-1 0 forward { exppc nubs 1 open 2
        -115.83443705866674 1 -62.550336696035508 1 
        -48.335129023650367 51.249527754165378 
        -62.913824920473559 3.5527136788005009e-15 
        0
        spline 0 { ref 0 } F -62.913824920473559 F 0.92140699797843251 F 0 F 51.762023031707031 
        } 0 0 #
-13 coedge $-1 $7 $11 $46 $70 forward $6 $14 #
-14 pcurve $-1 0 forward { exppc nubs 1 open 2
        134.19725207334375 1 196.74758876937926 1 
        -62.913824920473559 3.5527136788005009e-15 
        0 0 
        0
        spline 0 { ref 0 } F -62.913824920473559 F 0.92140699797843251 F 0 F 51.762023031707031 
        } 0 0 #
-15 face $-1 $26 $17 $3 $-1 $16 forward single #
-16 spline-surface $-1 forward { exactsur nubs 1 1 open open none none 2 2
        -60.514140853027996 1 10.764649340149621 1 
        -53.615758571518938 1 7.5024507679025598 1 
        -42.998912976946613 -26.763408233189505 15 
        28.264158688277782 -28.26025433086421 15 
        -41.715437866066644 34.34132320797714 15 
        29.547633799157751 32.844477110302435 15 
        0
        0
        0
        0
        0
        0
        0
        F -60.514140853027996 F 10.764649340149621 F -53.615758571518938 F 7.5024507679025598 } F -60.514140853027996 F 10.764649340149621 F -53.615758571518938 F 7.5024507679025598 #
-17 loop $-1 $-1 $18 $15 #
-18 coedge $-1 $20 $24 $33 $80 forward $17 $19 #
-19 pcurve $-1 0 forward { exppc nubs 1 open 2
        170.52015039053973 1 196.74758876937926 1 
        0 0 
        -25.304258554178393 6.897319982363733 
        0
        spline 0 { ref 5 } F -60.514140853027996 F 10.764649340149621 F -53.615758571518938 F 7.5024507679025598 
        } 0 0 #
-20 coedge $-1 $22 $18 $42 $76 forward $17 $21 #
-21 pcurve $-1 0 forward { exppc nubs 1 open 2
        0 1 62.550336696035508 1 
        -25.304258554178393 6.897319982363733 
        -60.514140853027996 -53.615758571518938 
        0
        spline 0 { ref 5 } F -60.514140853027996 F 10.764649340149621 F -53.615758571518938 F 7.5024507679025598 
        } 0 0 #
-22 coedge $-1 $24 $20 $53 $72 forward $17 $23 #
-23 pcurve $-1 0 forward { exppc nubs 1 open 2
        259.29792546541478 1 312.58202582804597 1 
        -60.514140853027996 -53.615758571518938 
        10.764649340149621 -53.615758571518938 
        0
        spline 0 { ref 5 } F -60.514140853027996 F 10.764649340149621 F -53.615758571518938 F 7.5024507679025598 
        } 0 0 #
-24 coedge $-1 $18 $22 $64 $82 forward $17 $25 #
-25 pcurve $-1 0 forward { exppc nubs 1 open 2
        115.83443705866674 1 170.52015039053973 1 
        10.764649340149621 -53.615758571518938 
        0 0 
        0
        spline 0 { ref 5 } F -60.514140853027996 F 10.764649340149621 F -53.615758571518938 F 7.5024507679025598 
        } 0 0 #
-26 face $-1 $37 $28 $3 $-1 $27 forward single #
-27 spline-surface $-1 forward { exactsur nubs 1 3 open open none none 2 2
        170.52015039053973 1 196.74758876937926 1 
        0 3 23.427699793664324 3 
        18.627807727144486 25.569737149440286 0 
        -6.5260277886184781 32.996922535693045 0 
        18.627807727144486 25.569737149440286 5.0000000000000009 
        -6.5260277886184781 32.996922535693045 5.0000000000000009 
        18.627807727144486 25.569737149440286 10 
        -6.5260277886184781 32.996922535693045 10 
        18.627807727144486 25.569737149440286 15 
        -6.5260277886184781 32.996922535693045 15 
        0
        0
        0
        0
        0
        0
        0
        F 170.52015039053973 F 196.74758876937926 F 0 F 23.427699793664324 } F 170.52015039053973 F 196.74758876937926 F 0 F 23.427699793664324 #
-28 loop $-1 $-1 $29 $26 #
-29 coedge $-1 $31 $35 $7 $78 reversed $28 $30 #
-30 pcurve $-1 0 forward { exppc nubs 1 open 2
        170.52015039053973 1 196.74758876937926 1 
        170.52015039053973 0 
        196.74758876937926 0 
        0
        spline 0 { ref 10 } F 170.52015039053973 F 196.74758876937926 F 0 F 23.427699793664324 
        } 0 0 #
-31 coedge $-1 $33 $29 $44 $74 forward $28 $32 #
-32 pcurve $-1 0 forward { exppc nubs 1 open 2
        -0 1 23.427699793664324 1 
        196.74758876937926 0 
        196.74758876937926 23.427699793664324 
        0
        spline 0 { ref 10 } F 170.52015039053973 F 196.74758876937926 F 0 F 23.427699793664324 
        } 0 0 #
-33 coedge $-1 $35 $31 $18 $80 reversed $28 $34 #
-34 pcurve $-1 0 forward { exppc nubs 1 open 2
        -196.74758876937926 1 -170.52015039053973 1 
        196.74758876937926 23.427699793664324 
        170.52015039053973 23.427699793664324 
        0
        spline 0 { ref 10 } F 170.52015039053973 F 196.74758876937926 F 0 F 23.427699793664324 
        } 0 0 #
-35 coedge $-1 $29 $33 $62 $92 reversed $28 $36 #
-36 pcurve $-1 0 forward { exppc nubs 1 open 2
        -23.427699793664324 1 -0 1 
        170.52015039053973 23.427699793664324 
        170.52015039053973 0 
        0
        spline 0 { ref 10 } F 170.52015039053973 F 196.74758876937926 F 0 F 23.427699793664324 
        } 0 0 #
-37 face $-1 $48 $39 $3 $-1 $38 forward single #
-38 spline-surface $-1 forward { exactsur nubs 1 3 open open none none 2 2
        0 1 62.550336696035508 1 
        0 3 23.427699793664324 3 
        -6.5260277886184781 32.996922535693045 0 
        -25.006850886832225 -27.141322730830396 0 
        -6.5260277886184781 32.996922535693045 5.0000000000000009 
        -31.004204916870364 -27.015351231616769 5.0000000000000009 
        -6.5260277886184781 32.996922535693045 10 
        -37.001558946908503 -26.88937973240315 10 
        -6.5260277886184781 32.996922535693045 15 
        -42.998912976946642 -26.763408233189523 15 
        0
        0
        0
        0
        0
        0
        0
        F 0 F 62.550336696035508 F 0 F 23.427699793664324 } F 0 F 62.550336696035508 F 0 F 23.427699793664324 #
-39 loop $-1 $-1 $40 $37 #
-40 coedge $-1 $42 $46 $55 $88 forward $39 $41 #
-41 pcurve $-1 0 forward { exppc nubs 1 open 2
        0 1 23.427699793664324 1 
        62.550336696035508 0 
        62.550336696035508 23.427699793664324 
        0
        spline 0 { ref 15 } F 0 F 62.550336696035508 F 0 F 23.427699793664324 
        } 0 0 #
-42 coedge $-1 $44 $40 $20 $76 reversed $39 $43 #
-43 pcurve $-1 0 forward { exppc nubs 1 open 2
        -62.550336696035508 1 -0 1 
        62.550336696035508 23.427699793664324 
        0 23.427699793664324 
        0
        spline 0 { ref 15 } F 0 F 62.550336696035508 F 0 F 23.427699793664324 
        } 0 0 #
-44 coedge $-1 $46 $42 $31 $74 reversed $39 $45 #
-45 pcurve $-1 0 forward { exppc nubs 1 open 2
        -23.427699793664324 1 -0 1 
        0 23.427699793664324 
        0 0 
        0
        spline 0 { ref 15 } F 0 F 62.550336696035508 F 0 F 23.427699793664324 
        } 0 0 #
-46 coedge $-1 $40 $44 $13 $70 reversed $39 $47 #
-47 pcurve $-1 0 forward { exppc nubs 1 open 2
        -196.74758876937926 1 -134.19725207334375 1 
        0 0 
        62.550336696035508 0 
        0
        spline 0 { ref 15 } F 0 F 62.550336696035508 F 0 F 23.427699793664324 
        } 0 0 #
-48 face $-1 $59 $50 $3 $-1 $49 forward single #
-49 spline-surface $-1 forward { exactsur nubs 1 3 open open none none 2 2
        62.550336696035508 1 115.83443705866674 1 
        0 3 23.427699793664324 3 
        -25.006850886832225 -27.141322730830396 0 
        28.264158688277785 -28.260254330864228 0 
        -31.004204916870364 -27.015351231616769 5.0000000000000009 
        28.264158688277782 -28.260254330864228 5.0000000000000009 
        -37.001558946908503 -26.88937973240315 10 
        28.264158688277782 -28.260254330864228 10 
        -42.998912976946642 -26.763408233189523 15 
        28.264158688277785 -28.260254330864228 15 
        0
        0
        0
        0
        0
        0
        0
        F 62.550336696035508 F 115.83443705866674 F 0 F 23.427699793664324 } F 62.550336696035508 F 115.83443705866674 F 0 F 23.427699793664324 #
-50 loop $-1 $-1 $51 $48 #
-51 coedge $-1 $53 $57 $66 $90 forward $50 $52 #
-52 pcurve $-1 0 forward { exppc nubs 1 open 2
        0 1 23.427699793664324 1 
        115.83443705866674 0 
        115.83443705866674 23.427699793664324 
        0
        spline 0 { ref 20 } F 62.550336696035508 F 115.83443705866674 F 0 F 23.427699793664324 
        } 0 0 #
-53 coedge $-1 $55 $51 $22 $72 reversed $50 $54 #
-54 pcurve $-1 0 forward { exppc nubs 1 open 2
        -312.58202582804597 1 -259.29792546541478 1 
        115.83443705866674 23.427699793664324 
        62.550336696035508 23.427699793664324 
        0
        spline 0 { ref 20 } F 62.550336696035508 F 115.83443705866674 F 0 F 23.427699793664324 
        } 0 0 #
-55 coedge $-1 $57 $53 $40 $88 reversed $50 $56 #
-56 pcurve $-1 0 forward { exppc nubs 1 open 2
        -23.427699793664324 1 -0 1 
        62.550336696035508 23.427699793664324 
        62.550336696035508 0 
        0
        spline 0 { ref 20 } F 62.550336696035508 F 115.83443705866674 F 0 F 23.427699793664324 
        } 0 0 #
-57 coedge $-1 $51 $55 $11 $84 reversed $50 $58 #
-58 pcurve $-1 0 forward { exppc nubs 1 open 2
        62.550336696035508 1 115.83443705866674 1 
        62.550336696035508 0 
        115.83443705866674 0 
        0
        spline 0 { ref 20 } F 62.550336696035508 F 115.83443705866674 F 0 F 23.427699793664324 
        } 0 0 #
-59 face $-1 $-1 $61 $3 $-1 $60 forward single #
-60 spline-surface $-1 forward { exactsur nubs 1 3 open open none none 2 2
        115.83443705866674 1 170.52015039053973 1 
        0 3 23.427699793664324 3 
        28.264158688277785 -28.260254330864228 0 
        18.627807727144486 25.569737149440286 0 
        28.264158688277782 -28.260254330864228 5.0000000000000009 
        18.627807727144486 25.569737149440286 5.0000000000000009 
        28.264158688277782 -28.260254330864228 10 
        18.627807727144486 25.569737149440286 10 
        28.264158688277785 -28.260254330864228 15 
        18.627807727144486 25.569737149440286 15 
        0
        0
        0
        0
        0
        0
        0
        F 115.83443705866674 F 170.52015039053973 F 0 F 23.427699793664324 } F 115.83443705866674 F 170.52015039053973 F 0 F 23.427699793664324 #
-61 loop $-1 $-1 $62 $59 #
-62 coedge $-1 $64 $68 $35 $92 forward $61 $63 #
-63 pcurve $-1 0 forward { exppc nubs 1 open 2
        0 1 23.427699793664324 1 
        170.52015039053973 0 
        170.52015039053973 23.427699793664324 
        0
        spline 0 { ref 25 } F 115.83443705866674 F 170.52015039053973 F 0 F 23.427699793664324 
        } 0 0 #
-64 coedge $-1 $66 $62 $24 $82 reversed $61 $65 #
-65 pcurve $-1 0 forward { exppc nubs 1 open 2
        -170.52015039053973 1 -115.83443705866674 1 
        170.52015039053973 23.427699793664324 
        115.83443705866674 23.427699793664324 
        0
        spline 0 { ref 25 } F 115.83443705866674 F 170.52015039053973 F 0 F 23.427699793664324 
        } 0 0 #
-66 coedge $-1 $68 $64 $51 $90 reversed $61 $67 #
-67 pcurve $-1 0 forward { exppc nubs 1 open 2
        -23.427699793664324 1 -0 1 
        115.83443705866674 23.427699793664324 
        115.83443705866674 0 
        0
        spline 0 { ref 25 } F 115.83443705866674 F 170.52015039053973 F 0 F 23.427699793664324 
        } 0 0 #
-68 coedge $-1 $62 $66 $9 $86 reversed $61 $69 #
-69 pcurve $-1 0 forward { exppc nubs 1 open 2
        115.83443705866674 1 170.52015039053973 1 
        115.83443705866674 0 
        170.52015039053973 0 
        0
        spline 0 { ref 25 } F 115.83443705866674 F 170.52015039053973 F 0 F 23.427699793664324 
        } 0 0 #
-70 edge $-1 $96 $94 $13 $71 forward #
-71 intcurve-curve $-1 forward { exactcur nubs 1 open 2
        134.19725207334375 1 196.74758876937926 1 
        -25.006850886832225 -27.141322730830396 0 
        -6.5260277886184781 32.996922535693045 0 
        0
        null_surface
        null_surface
        nullbs
        nullbs
        I I
        0
        0
        0
        F 134.19725207334375 F 196.74758876937926 } F 134.19725207334375 F 196.74758876937926 #
-72 edge $-1 $106 $104 $22 $73 forward #
-73 intcurve-curve $-1 forward { exactcur nubs 1 open 2
        259.29792546541478 1 312.58202582804597 1 
        -42.998912976946642 -26.763408233189523 15 
        28.264158688277789 -28.260254330864228 15 
        0
        null_surface
        null_surface
        nullbs
        nullbs
        I I
        0
        0
        0
        F 259.29792546541478 F 312.58202582804597 } F 259.29792546541478 F 312.58202582804597 #
-74 edge $-1 $94 $108 $44 $75 forward #
-75 intcurve-curve $-1 forward { exactcur nubs 3 open 2
        0 3 23.427699793664324 3 
        -6.5260277886184781 32.996922535693045 0 
        -6.5260277886184781 32.996922535693045 5.0000000000000009 
        -6.5260277886184781 32.996922535693045 10 
        -6.5260277886184781 32.996922535693045 15 
        0
        null_surface
        null_surface
        nullbs
        nullbs
        I I
        0
        0
        0
        F 0 F 23.427699793664324 } F 0 F 23.427699793664324 #
-76 edge $-1 $108 $106 $42 $77 forward #
-77 intcurve-curve $-1 forward { exactcur nubs 1 open 2
        0 1 62.550336696035508 1 
        -6.5260277886184781 32.996922535693045 15 
        -42.998912976946642 -26.763408233189523 15 
        0
        null_surface
        null_surface
        nullbs
        nullbs
        I I
        0
        0
        0
        F 0 F 62.550336696035508 } F 0 F 62.550336696035508 #
-78 edge $-1 $94 $100 $29 $79 forward #
-79 intcurve-curve $-1 forward { exactcur nubs 1 open 2
        -196.74758876937926 1 -170.52015039053973 1 
        -6.5260277886184781 32.996922535693045 0 
        18.627807727144486 25.569737149440286 0 
        0
        null_surface
        null_surface
        nullbs
        nullbs
        I I
        0
        0
        0
        F -196.74758876937926 F -170.52015039053973 } F -196.74758876937926 F -170.52015039053973 #
-80 edge $-1 $102 $108 $33 $81 forward #
-81 intcurve-curve $-1 forward { exactcur nubs 1 open 2
        170.52015039053973 1 196.74758876937926 1 
        18.627807727144486 25.569737149440286 15 
        -6.5260277886184781 32.996922535693045 15 
        0
        null_surface
        null_surface
        nullbs
        nullbs
        I I
        0
        0
        0
        F 170.52015039053973 F 196.74758876937926 } F 170.52015039053973 F 196.74758876937926 #
-82 edge $-1 $104 $102 $64 $83 forward #
-83 intcurve-curve $-1 forward { exactcur nubs 1 open 2
        115.83443705866674 1 170.52015039053973 1 
        28.264158688277789 -28.260254330864228 15 
        18.627807727144486 25.569737149440286 15 
        0
        null_surface
        null_surface
        nullbs
        nullbs
        I I
        0
        0
        0
        F 115.83443705866674 F 170.52015039053973 } F 115.83443705866674 F 170.52015039053973 #
-84 edge $-1 $98 $96 $57 $85 forward #
-85 intcurve-curve $-1 forward { exactcur nubs 1 open 2
        -115.83443705866674 1 -62.550336696035508 1 
        28.264158688277789 -28.260254330864228 0 
        -25.006850886832225 -27.141322730830396 0 
        0
        null_surface
        null_surface
        nullbs
        nullbs
        I I
        0
        0
        0
        F -115.83443705866674 F -62.550336696035508 } F -115.83443705866674 F -62.550336696035508 #
-86 edge $-1 $100 $98 $68 $87 forward #
-87 intcurve-curve $-1 forward { exactcur nubs 1 open 2
        -170.52015039053973 1 -115.83443705866674 1 
        18.627807727144486 25.569737149440286 0 
        28.264158688277789 -28.260254330864228 0 
        0
        null_surface
        null_surface
        nullbs
        nullbs
        I I
        0
        0
        0
        F -170.52015039053973 F -115.83443705866674 } F -170.52015039053973 F -115.83443705866674 #
-88 edge $-1 $96 $106 $55 $89 forward #
-89 intcurve-curve $-1 forward { exactcur nubs 3 open 2
        0 3 23.427699793664324 3 
        -25.006850886832225 -27.141322730830396 0 
        -31.004204916870364 -27.015351231616769 5.0000000000000009 
        -37.001558946908503 -26.88937973240315 10 
        -42.998912976946642 -26.763408233189523 15 
        0
        null_surface
        null_surface
        nullbs
        nullbs
        I I
        0
        0
        0
        F 0 F 23.427699793664324 } F 0 F 23.427699793664324 #
-90 edge $-1 $98 $104 $66 $91 forward #
-91 intcurve-curve $-1 forward { exactcur nubs 3 open 2
        0 3 23.427699793664324 3 
        28.264158688277789 -28.260254330864228 0 
        28.264158688277785 -28.260254330864228 5.0000000000000009 
        28.264158688277785 -28.260254330864228 10 
        28.264158688277789 -28.260254330864228 15 
        0
        null_surface
        null_surface
        nullbs
        nullbs
        I I
        0
        0
        0
        F 0 F 23.427699793664324 } F 0 F 23.427699793664324 #
-92 edge $-1 $100 $102 $35 $93 forward #
-93 intcurve-curve $-1 forward { exactcur nubs 3 open 2
        0 3 23.427699793664324 3 
        18.627807727144486 25.569737149440286 0 
        18.627807727144486 25.569737149440286 5.0000000000000009 
        18.627807727144486 25.569737149440286 10 
        18.627807727144486 25.569737149440286 15 
        0
        null_surface
        null_surface
        nullbs
        nullbs
        I I
        0
        0
        0
        F 0 F 23.427699793664324 } F 0 F 23.427699793664324 #
-94 vertex $-1 $70 $95 #
-95 point $-1 -6.5260277886184781 32.996922535693045 0 #
-96 vertex $-1 $70 $97 #
-97 point $-1 -25.006850886832225 -27.141322730830396 0 #
-98 vertex $-1 $84 $99 #
-99 point $-1 28.264158688277789 -28.260254330864228 0 #
-100 vertex $-1 $86 $101 #
-101 point $-1 18.627807727144486 25.569737149440286 0 #
-102 vertex $-1 $80 $103 #
-103 point $-1 18.627807727144486 25.569737149440286 15 #
-104 vertex $-1 $72 $105 #
-105 point $-1 28.264158688277789 -28.260254330864228 15 #
-106 vertex $-1 $72 $107 #
-107 point $-1 -42.998912976946642 -26.763408233189523 15 #
-108 vertex $-1 $74 $109 #
-109 point $-1 -6.5260277886184781 32.996922535693045 15 #
End-of-ACIS-data
