400 0 1 0        
7 Unknown 13 ACIS 5.0.1 NT 24 Fri Oct 27 22:46:50 2017
1000 9.9999999999999995e-007 1e-010 
-0 body $-1 $2 $-1 $1 #                                                                                            
-1 transform $-1 1 0 0 0 1 0 0 0 1 0 0 0 1 0 0 0 #
-2 lump $-1 $-1 $3 $0 #
-3 shell $-1 $-1 $-1 $4 $-1 $2 #
-4 face $-1 $15 $6 $3 $-1 $5 forward single #
-5 spline-surface $-1 forward { exactsur nubs 1 1 open open none none 2 2
        -72.532232103691967 1 0.2893749987858385 1 
        0 1 53.985627762902773 1 
        -27.832240725462146 -36.335393048266212 0 
        -6.4410244023457963 33.273531129638499 0 
        23.771694139038008 -52.193574263497808 0 
        45.162910462154358 17.415349914406907 0 
        0
        0
        0
        0
        0
        0
        0
        F -72.532232103691967 F 0.2893749987858385 F 0 F 53.985627762902773 } F -72.532232103691967 F 0.2893749987858385 F 0 F 53.985627762902773 #
-6 loop $-1 $-1 $7 $4 #
-7 coedge $-1 $9 $13 $31 $93 forward $6 $8 #
-8 pcurve $-1 0 forward { exppc nubs 1 open 2
        -196.74758876937926 1 -170.52015039053973 1 
        0 0 
        0.2893749987858385 26.225841950753509 
        0
        spline 0 { ref 0 } F -72.532232103691967 F 0.2893749987858385 F 0 F 53.985627762902773 
        } 0 0 #
-9 coedge $-1 $11 $7 $72 $101 forward $6 $10 #
-10 pcurve $-1 0 forward { exppc nubs 1 open 2
        -170.52015039053973 1 -115.83443705866674 1 
        0.2893749987858385 26.225841950753509 
        -57.953536206868762 53.985627762902773 
        0
        spline 0 { ref 0 } F -72.532232103691967 F 0.2893749987858385 F 0 F 53.985627762902773 
        } 0 0 #
-11 coedge $-1 $13 $9 $59 $99 forward $6 $12 #
-12 pcurve $-1 0 forward { exppc nubs 1 open 2
        -115.83443705866674 1 -62.550336696035508 1 
        -57.953536206868762 53.985627762902773 
        -72.532232103691967 2.7361000087373917 
        0
        spline 0 { ref 0 } F -72.532232103691967 F 0.2893749987858385 F 0 F 53.985627762902773 
        } 0 0 #
-13 coedge $-1 $7 $11 $48 $85 forward $6 $14 #
-14 pcurve $-1 0 forward { exppc nubs 1 open 2
        134.19725207334375 1 196.74758876937926 1 
        -72.532232103691967 2.7361000087373917 
        0 0 
        0
        spline 0 { ref 0 } F -72.532232103691967 F 0.2893749987858385 F 0 F 53.985627762902773 
        } 0 0 #
-15 face $-1 $26 $17 $3 $-1 $16 forward single #
-16 spline-surface $-1 forward { exactsur nubs 1 1 open open none none 2 2
        -60.514140853028039 1 10.764649340149592 1 
        -63.615758571518946 1 6.897319982363733 1 
        -43.208911784953635 -36.761203015071956 15 
        28.05415988027077 -38.258049112746662 15 
        -41.728145540431832 33.736325866975491 15 
        29.534926124792573 32.239479769300786 15 
        0
        0
        0
        0
        0
        0
        0
        F -60.514140853028039 F 10.764649340149592 F -63.615758571518946 F 6.897319982363733 } F -60.514140853028039 F 10.764649340149592 F -63.615758571518946 F 6.897319982363733 #
-17 loop $-1 $-1 $18 $15 #
-18 coedge $-1 $20 $24 $81 $95 forward $17 $19 #
-19 pcurve $-1 0 forward { exppc nubs 1 open 2
        170.52015039053973 1 196.74758876937926 1 
        0 0 
        -25.304258554178393 6.897319982363733 
        0
        spline 0 { ref 5 } F -60.514140853028039 F 10.764649340149592 F -63.615758571518946 F 6.897319982363733 
        } 0 0 #
-20 coedge $-1 $22 $18 $42 $91 forward $17 $21 #
-21 pcurve $-1 0 forward { exppc nubs 1 open 2
        0 1 62.550336696035508 1 
        -25.304258554178393 6.897319982363733 
        -60.514140853028039 -63.615758571518946 
        0
        spline 0 { ref 5 } F -60.514140853028039 F 10.764649340149592 F -63.615758571518946 F 6.897319982363733 
        } 0 0 #
-22 coedge $-1 $24 $20 $55 $87 forward $17 $23 #
-23 pcurve $-1 0 forward { exppc nubs 1 open 2
        259.29792546541478 1 312.58202582804597 1 
        -60.514140853028039 -63.615758571518946 
        10.764649340149592 -63.615758571518938 
        0
        spline 0 { ref 5 } F -60.514140853028039 F 10.764649340149592 F -63.615758571518946 F 6.897319982363733 
        } 0 0 #
-24 coedge $-1 $18 $22 $68 $97 forward $17 $25 #
-25 pcurve $-1 0 forward { exppc nubs 1 open 2
        115.83443705866674 1 170.52015039053973 1 
        10.764649340149592 -63.615758571518938 
        0 0 
        0
        spline 0 { ref 5 } F -60.514140853028039 F 10.764649340149592 F -63.615758571518946 F 6.897319982363733 
        } 0 0 #
-26 face $-1 $37 $28 $3 $-1 $27 forward single #
-27 spline-surface $-1 forward { exactsur nubs 1 3 open open none none 2 2
        170.52015039053973 1 196.74758876937926 1 
        0 3 6.5092879345708567 3 
        18.627807727144486 25.569737149440286 0 
        -6.5260277886184781 32.996922535693045 0 
        18.627807727144486 25.569737149440286 1.3892289878862112 
        -6.5260277886184781 32.996922535693045 1.3892289878862112 
        18.627807727144486 25.569737149440286 2.7784579757724224 
        -6.5260277886184781 32.996922535693045 2.7784579757724224 
        18.627807727144486 25.569737149440286 4.1676869636586336 
        -6.5260277886184781 32.996922535693045 4.1676869636586336 
        0
        0
        0
        0
        0
        0
        0
        F 170.52015039053973 F 196.74758876937926 F 0 F 6.5092879345708567 } F 170.52015039053973 F 196.74758876937926 F 0 F 6.5092879345708567 #
-28 loop $-1 $-1 $29 $26 #
-29 coedge $-1 $31 $35 $64 $107 reversed $28 $30 #
-30 pcurve $-1 0 forward { exppc nubs 1 open 2
        -6.5092879345708514 1 -0 1 
        170.52015039053973 6.5092879345708514 
        170.52015039053973 0 
        0
        spline 0 { ref 10 } F 170.52015039053973 F 196.74758876937926 F 0 F 6.5092879345708567 
        } 0 0 #
-31 coedge $-1 $33 $29 $7 $93 reversed $28 $32 #
-32 pcurve $-1 0 forward { exppc nubs 1 open 2
        170.52015039053973 1 196.74758876937926 1 
        170.52015039053973 0 
        196.74758876937926 0 
        0
        spline 0 { ref 10 } F 170.52015039053973 F 196.74758876937926 F 0 F 6.5092879345708567 
        } 0 0 #
-33 coedge $-1 $35 $31 $46 $89 forward $28 $34 #
-34 pcurve $-1 0 forward { exppc nubs 1 open 2
        -0 1 6.5092879345708576 1 
        196.74758876937926 0 
        196.74758876937926 6.5092879345708567 
        0
        spline 0 { ref 10 } F 170.52015039053973 F 196.74758876937926 F 0 F 6.5092879345708567 
        } 0 0 #
-35 coedge $-1 $29 $33 $77 $109 reversed $28 $36 #
-36 pcurve $-1 0 forward { exppc nubs 1 open 2
        -27.327438378839517 1 -1.0999999999999748 1 
        196.74758876937926 6.5092879345708567 
        170.52015039053973 6.5092879345708514 
        0
        spline 0 { ref 10 } F 170.52015039053973 F 196.74758876937926 F 0 F 6.5092879345708567 
        } 0 0 #
-37 face $-1 $50 $39 $3 $-1 $38 forward single #
-38 spline-surface $-1 forward { exactsur nubs 1 3 open open none none 2 2
        0 1 62.550336696035508 1 
        0 3 23.427699793664324 3 
        -6.5260277886184781 32.996922535693045 0 
        -25.21684969483924 -37.139117512712829 0 
        -6.5260277886184781 32.996922535693045 5.0000000000000009 
        -31.214203724877379 -37.013146013499203 5.0000000000000009 
        -6.5260277886184781 32.996922535693045 10 
        -37.211557754915518 -36.887174514285583 10 
        -6.5260277886184781 32.996922535693045 15 
        -43.208911784953656 -36.761203015071956 15 
        0
        0
        0
        0
        0
        0
        0
        F 0 F 62.550336696035508 F 0 F 23.427699793664324 } F 0 F 62.550336696035508 F 0 F 23.427699793664324 #
-39 loop $-1 $-1 $40 $37 #
-40 coedge $-1 $42 $48 $57 $103 forward $39 $41 #
-41 pcurve $-1 0 forward { exppc nubs 1 open 2
        0 1 23.427699793664324 1 
        62.550336696035508 0 
        62.550336696035508 23.427699793664324 
        0
        spline 0 { ref 15 } F 0 F 62.550336696035508 F 0 F 23.427699793664324 
        } 0 0 #
-42 coedge $-1 $44 $40 $20 $91 reversed $39 $43 #
-43 pcurve $-1 0 forward { exppc nubs 1 open 2
        -62.550336696035508 1 -0 1 
        62.550336696035508 23.427699793664324 
        0 23.427699793664324 
        0
        spline 0 { ref 15 } F 0 F 62.550336696035508 F 0 F 23.427699793664324 
        } 0 0 #
-44 coedge $-1 $46 $42 $79 $111 reversed $39 $45 #
-45 pcurve $-1 0 forward { exppc nubs 1 open 2
        -23.427699793664324 1 -6.5092879345708576 1 
        0 23.427699793664324 
        0 6.5092879345708576 
        0
        spline 0 { ref 15 } F 0 F 62.550336696035508 F 0 F 23.427699793664324 
        } 0 0 #
-46 coedge $-1 $48 $44 $33 $89 reversed $39 $47 #
-47 pcurve $-1 0 forward { exppc nubs 1 open 2
        -6.5092879345708576 1 -0 1 
        0 6.5092879345708576 
        0 0 
        0
        spline 0 { ref 15 } F 0 F 62.550336696035508 F 0 F 23.427699793664324 
        } 0 0 #
-48 coedge $-1 $40 $46 $13 $85 reversed $39 $49 #
-49 pcurve $-1 0 forward { exppc nubs 1 open 2
        -196.74758876937926 1 -134.19725207334375 1 
        0 0 
        62.550336696035508 0 
        0
        spline 0 { ref 15 } F 0 F 62.550336696035508 F 0 F 23.427699793664324 
        } 0 0 #
-50 face $-1 $61 $52 $3 $-1 $51 forward single #
-51 spline-surface $-1 forward { exactsur nubs 1 3 open open none none 2 2
        62.550336696035508 1 115.83443705866674 1 
        0 3 23.427699793664324 3 
        -25.21684969483924 -37.139117512712829 0 
        28.05415988027077 -38.258049112746662 0 
        -31.214203724877379 -37.013146013499203 5.0000000000000009 
        28.054159880270767 -38.258049112746662 5.0000000000000009 
        -37.211557754915518 -36.887174514285583 10 
        28.054159880270767 -38.258049112746662 10 
        -43.208911784953656 -36.761203015071956 15 
        28.05415988027077 -38.258049112746662 15 
        0
        0
        0
        0
        0
        0
        0
        F 62.550336696035508 F 115.83443705866674 F 0 F 23.427699793664324 } F 62.550336696035508 F 115.83443705866674 F 0 F 23.427699793664324 #
-52 loop $-1 $-1 $53 $50 #
-53 coedge $-1 $55 $59 $70 $105 forward $52 $54 #
-54 pcurve $-1 0 forward { exppc nubs 1 open 2
        0 1 23.427699793664324 1 
        115.83443705866674 0 
        115.83443705866674 23.427699793664324 
        0
        spline 0 { ref 21 } F 62.550336696035508 F 115.83443705866674 F 0 F 23.427699793664324 
        } 0 0 #
-55 coedge $-1 $57 $53 $22 $87 reversed $52 $56 #
-56 pcurve $-1 0 forward { exppc nubs 1 open 2
        -312.58202582804597 1 -259.29792546541478 1 
        115.83443705866674 23.427699793664324 
        62.550336696035508 23.427699793664324 
        0
        spline 0 { ref 21 } F 62.550336696035508 F 115.83443705866674 F 0 F 23.427699793664324 
        } 0 0 #
-57 coedge $-1 $59 $55 $40 $103 reversed $52 $58 #
-58 pcurve $-1 0 forward { exppc nubs 1 open 2
        -23.427699793664324 1 -0 1 
        62.550336696035508 23.427699793664324 
        62.550336696035508 0 
        0
        spline 0 { ref 21 } F 62.550336696035508 F 115.83443705866674 F 0 F 23.427699793664324 
        } 0 0 #
-59 coedge $-1 $53 $57 $11 $99 reversed $52 $60 #
-60 pcurve $-1 0 forward { exppc nubs 1 open 2
        62.550336696035508 1 115.83443705866674 1 
        62.550336696035508 0 
        115.83443705866674 0 
        0
        spline 0 { ref 21 } F 62.550336696035508 F 115.83443705866674 F 0 F 23.427699793664324 
        } 0 0 #
-61 face $-1 $74 $63 $3 $-1 $62 forward single #
-62 spline-surface $-1 forward { exactsur nubs 1 3 open open none none 2 2
        115.83443705866674 1 170.52015039053973 1 
        0 3 23.427699793664324 3 
        28.054159880270774 -38.258049112746662 0 
        18.627807727144486 25.569737149440286 0 
        28.05415988027077 -38.258049112746662 5.0000000000000009 
        18.627807727144486 25.569737149440286 5.0000000000000009 
        28.05415988027077 -38.258049112746662 10 
        18.627807727144486 25.569737149440286 10 
        28.054159880270774 -38.258049112746662 15 
        18.627807727144486 25.569737149440286 15 
        0
        0
        0
        0
        0
        0
        0
        F 115.83443705866674 F 170.52015039053973 F 0 F 23.427699793664324 } F 115.83443705866674 F 170.52015039053973 F 0 F 23.427699793664324 #
-63 loop $-1 $-1 $64 $61 #
-64 coedge $-1 $66 $72 $29 $107 forward $63 $65 #
-65 pcurve $-1 0 forward { exppc nubs 1 open 2
        -0 1 6.5092879345708514 1 
        170.52015039053973 0 
        170.52015039053973 6.5092879345708505 
        0
        spline 0 { ref 26 } F 115.83443705866674 F 170.52015039053973 F 0 F 23.427699793664324 
        } 0 0 #
-66 coedge $-1 $68 $64 $83 $113 forward $63 $67 #
-67 pcurve $-1 0 forward { exppc nubs 1 open 2
        6.5092879345708514 1 23.427699793664324 1 
        170.52015039053973 6.5092879345708505 
        170.52015039053973 23.427699793664324 
        0
        spline 0 { ref 26 } F 115.83443705866674 F 170.52015039053973 F 0 F 23.427699793664324 
        } 0 0 #
-68 coedge $-1 $70 $66 $24 $97 reversed $63 $69 #
-69 pcurve $-1 0 forward { exppc nubs 1 open 2
        -170.52015039053973 1 -115.83443705866674 1 
        170.52015039053973 23.427699793664324 
        115.83443705866674 23.427699793664324 
        0
        spline 0 { ref 26 } F 115.83443705866674 F 170.52015039053973 F 0 F 23.427699793664324 
        } 0 0 #
-70 coedge $-1 $72 $68 $53 $105 reversed $63 $71 #
-71 pcurve $-1 0 forward { exppc nubs 1 open 2
        -23.427699793664324 1 -0 1 
        115.83443705866674 23.427699793664324 
        115.83443705866674 0 
        0
        spline 0 { ref 26 } F 115.83443705866674 F 170.52015039053973 F 0 F 23.427699793664324 
        } 0 0 #
-72 coedge $-1 $64 $70 $9 $101 reversed $63 $73 #
-73 pcurve $-1 0 forward { exppc nubs 1 open 2
        115.83443705866674 1 170.52015039053973 1 
        115.83443705866674 0 
        170.52015039053973 0 
        0
        spline 0 { ref 26 } F 115.83443705866674 F 170.52015039053973 F 0 F 23.427699793664324 
        } 0 0 #
-74 face $-1 $-1 $76 $3 $-1 $75 forward single #
-75 spline-surface $-1 forward { exactsur nubs 1 3 open open none none 2 2
        170.52015039053973 1 196.74758876937926 1 
        6.5092879345708514 3 23.427699793664324 3 
        18.627807727144486 25.569737149440286 4.16768696365863 
        -6.5260277886184781 32.996922535693045 4.16768696365863 
        18.627807727144486 25.569737149440286 7.7784579757724197 
        -6.5260277886184781 32.996922535693045 7.7784579757724197 
        18.627807727144486 25.569737149440286 11.389228987886209 
        -6.5260277886184781 32.996922535693045 11.389228987886209 
        18.627807727144486 25.569737149440286 15 
        -6.5260277886184781 32.996922535693045 15 
        0
        0
        0
        0
        0
        0
        0
        F 170.52015039053973 F 196.74758876937926 F 6.5092879345708514 F 23.427699793664324 } F 170.52015039053973 F 196.74758876937926 F 6.5092879345708514 F 23.427699793664324 #
-76 loop $-1 $-1 $77 $74 #
-77 coedge $-1 $79 $83 $35 $109 forward $76 $78 #
-78 pcurve $-1 0 forward { exppc nubs 1 open 2
        1.0999999999999748 1 27.327438378839517 1 
        170.52015039053973 6.5092879345708514 
        196.74758876937926 6.5092879345708567 
        0
        spline 0 { ref 32 } F 170.52015039053973 F 196.74758876937926 F 6.5092879345708514 F 23.427699793664324 
        } 0 0 #
-79 coedge $-1 $81 $77 $44 $111 forward $76 $80 #
-80 pcurve $-1 0 forward { exppc nubs 1 open 2
        6.5092879345708576 1 23.427699793664324 1 
        196.74758876937926 6.5092879345708567 
        196.74758876937926 23.427699793664324 
        0
        spline 0 { ref 32 } F 170.52015039053973 F 196.74758876937926 F 6.5092879345708514 F 23.427699793664324 
        } 0 0 #
-81 coedge $-1 $83 $79 $18 $95 reversed $76 $82 #
-82 pcurve $-1 0 forward { exppc nubs 1 open 2
        -196.74758876937926 1 -170.52015039053973 1 
        196.74758876937926 23.427699793664324 
        170.52015039053973 23.427699793664324 
        0
        spline 0 { ref 32 } F 170.52015039053973 F 196.74758876937926 F 6.5092879345708514 F 23.427699793664324 
        } 0 0 #
-83 coedge $-1 $77 $81 $66 $113 reversed $76 $84 #
-84 pcurve $-1 0 forward { exppc nubs 1 open 2
        -23.427699793664324 1 -6.5092879345708514 1 
        170.52015039053973 23.427699793664324 
        170.52015039053973 6.5092879345708514 
        0
        spline 0 { ref 32 } F 170.52015039053973 F 196.74758876937926 F 6.5092879345708514 F 23.427699793664324 
        } 0 0 #
-85 edge $-1 $117 $115 $13 $86 forward #
-86 intcurve-curve $-1 forward { exactcur nubs 1 open 2
        134.19725207334375 1 196.74758876937926 1 
        -25.21684969483924 -37.139117512712829 0 
        -6.5260277886184781 32.996922535693045 0 
        0
        null_surface
        null_surface
        nullbs
        nullbs
        I I
        0
        0
        0
        F 134.19725207334375 F 196.74758876937926 } F 134.19725207334375 F 196.74758876937926 #
-87 edge $-1 $127 $125 $22 $88 forward #
-88 intcurve-curve $-1 forward { exactcur nubs 1 open 2
        259.29792546541478 1 312.58202582804597 1 
        -43.208911784953656 -36.761203015071956 15 
        28.054159880270774 -38.258049112746662 15 
        0
        null_surface
        null_surface
        nullbs
        nullbs
        I I
        0
        0
        0
        F 259.29792546541478 F 312.58202582804597 } F 259.29792546541478 F 312.58202582804597 #
-89 edge $-1 $115 $133 $46 $90 forward #
-90 intcurve-curve $-1 forward { exactcur nubs 3 open 2
        0 3 6.5092879345708576 3 
        -6.5260277886184781 32.996922535693045 0 
        -6.5260277886184781 32.996922535693045 1.3892289878862116 
        -6.5260277886184781 32.996922535693045 2.7784579757724228 
        -6.5260277886184781 32.996922535693045 4.1676869636586353 
        0
        null_surface
        null_surface
        nullbs
        nullbs
        I I
        0
        0
        0
        F 0 F 6.5092879345708576 } F 0 F 6.5092879345708576 #
-91 edge $-1 $129 $127 $42 $92 forward #
-92 intcurve-curve $-1 forward { exactcur nubs 1 open 2
        0 1 62.550336696035508 1 
        -6.5260277886184781 32.996922535693045 15 
        -43.208911784953656 -36.761203015071956 15 
        0
        null_surface
        null_surface
        nullbs
        nullbs
        I I
        0
        0
        0
        F 0 F 62.550336696035508 } F 0 F 62.550336696035508 #
-93 edge $-1 $115 $121 $31 $94 forward #
-94 intcurve-curve $-1 forward { exactcur nubs 1 open 2
        -196.74758876937926 1 -170.52015039053973 1 
        -6.5260277886184781 32.996922535693045 0 
        18.627807727144486 25.569737149440286 0 
        0
        null_surface
        null_surface
        nullbs
        nullbs
        I I
        0
        0
        0
        F -196.74758876937926 F -170.52015039053973 } F -196.74758876937926 F -170.52015039053973 #
-95 edge $-1 $123 $129 $81 $96 forward #
-96 intcurve-curve $-1 forward { exactcur nubs 1 open 2
        170.52015039053973 1 196.74758876937926 1 
        18.627807727144486 25.569737149440286 15 
        -6.5260277886184781 32.996922535693045 15 
        0
        null_surface
        null_surface
        nullbs
        nullbs
        I I
        0
        0
        0
        F 170.52015039053973 F 196.74758876937926 } F 170.52015039053973 F 196.74758876937926 #
-97 edge $-1 $125 $123 $68 $98 forward #
-98 intcurve-curve $-1 forward { exactcur nubs 1 open 2
        115.83443705866674 1 170.52015039053973 1 
        28.054159880270774 -38.258049112746662 15 
        18.627807727144486 25.569737149440286 15 
        0
        null_surface
        null_surface
        nullbs
        nullbs
        I I
        0
        0
        0
        F 115.83443705866674 F 170.52015039053973 } F 115.83443705866674 F 170.52015039053973 #
-99 edge $-1 $119 $117 $59 $100 forward #
-100 intcurve-curve $-1 forward { exactcur nubs 1 open 2
        -115.83443705866674 1 -62.550336696035508 1 
        28.054159880270774 -38.258049112746662 0 
        -25.21684969483924 -37.139117512712829 0 
        0
        null_surface
        null_surface
        nullbs
        nullbs
        I I
        0
        0
        0
        F -115.83443705866674 F -62.550336696035508 } F -115.83443705866674 F -62.550336696035508 #
-101 edge $-1 $121 $119 $72 $102 forward #
-102 intcurve-curve $-1 forward { exactcur nubs 1 open 2
        -170.52015039053973 1 -115.83443705866674 1 
        18.627807727144486 25.569737149440286 0 
        28.054159880270774 -38.258049112746662 0 
        0
        null_surface
        null_surface
        nullbs
        nullbs
        I I
        0
        0
        0
        F -170.52015039053973 F -115.83443705866674 } F -170.52015039053973 F -115.83443705866674 #
-103 edge $-1 $117 $127 $57 $104 forward #
-104 intcurve-curve $-1 forward { exactcur nubs 3 open 2
        0 3 23.427699793664324 3 
        -25.21684969483924 -37.139117512712829 0 
        -31.214203724877379 -37.013146013499203 5.0000000000000009 
        -37.211557754915518 -36.887174514285583 10 
        -43.208911784953656 -36.761203015071956 15 
        0
        null_surface
        null_surface
        nullbs
        nullbs
        I I
        0
        0
        0
        F 0 F 23.427699793664324 } F 0 F 23.427699793664324 #
-105 edge $-1 $119 $125 $70 $106 forward #
-106 intcurve-curve $-1 forward { exactcur nubs 3 open 2
        0 3 23.427699793664324 3 
        28.054159880270774 -38.258049112746662 0 
        28.05415988027077 -38.258049112746662 5.0000000000000009 
        28.05415988027077 -38.258049112746662 10 
        28.054159880270774 -38.258049112746662 15 
        0
        null_surface
        null_surface
        nullbs
        nullbs
        I I
        0
        0
        0
        F 0 F 23.427699793664324 } F 0 F 23.427699793664324 #
-107 edge $-1 $121 $131 $29 $108 forward #
-108 intcurve-curve $-1 forward { exactcur nubs 3 open 2
        0 3 6.5092879345708514 3 
        18.627807727144486 25.569737149440286 0 
        18.627807727144486 25.569737149440286 1.3892289878862101 
        18.627807727144486 25.569737149440286 2.7784579757724206 
        18.627807727144486 25.569737149440286 4.1676869636586309 
        0
        null_surface
        null_surface
        nullbs
        nullbs
        I I
        0
        0
        0
        F 0 F 6.5092879345708514 } F 0 F 6.5092879345708514 #
-109 edge $-1 $131 $133 $35 $110 forward #
-110 intcurve-curve $-1 forward { exactcur nubs 1 open 2
        1.0999999999999748 1 27.327438378839517 1 
        18.627807727144514 25.569737149440275 4.1676869636586309 
        -6.526027788618471 32.996922535693045 4.1676869636586309 
        0
        null_surface
        null_surface
        nullbs
        nullbs
        I I
        0
        0
        0
        F 1.0999999999999748 F 27.327438378839517 } F 1.0999999999999748 F 27.327438378839517 #
-111 edge $-1 $133 $129 $44 $112 forward #
-112 intcurve-curve $-1 forward { exactcur nubs 3 open 2
        6.5092879345708576 3 23.427699793664324 3 
        -6.5260277886184781 32.996922535693045 4.1676869636586353 
        -6.5260277886184781 32.996922535693045 7.7784579757724224 
        -6.5260277886184781 32.996922535693045 11.389228987886211 
        -6.5260277886184781 32.996922535693045 15 
        0
        null_surface
        null_surface
        nullbs
        nullbs
        I I
        0
        0
        0
        F 6.5092879345708576 F 23.427699793664324 } F 6.5092879345708576 F 23.427699793664324 #
-113 edge $-1 $131 $123 $83 $114 forward #
-114 intcurve-curve $-1 forward { exactcur nubs 3 open 2
        6.5092879345708514 3 23.427699793664324 3 
        18.627807727144486 25.569737149440286 4.1676869636586309 
        18.627807727144486 25.569737149440286 7.7784579757724197 
        18.627807727144486 25.569737149440286 11.389228987886209 
        18.627807727144486 25.569737149440286 15 
        0
        null_surface
        null_surface
        nullbs
        nullbs
        I I
        0
        0
        0
        F 6.5092879345708514 F 23.427699793664324 } F 6.5092879345708514 F 23.427699793664324 #
-115 vertex $-1 $85 $116 #
-116 point $-1 -6.5260277886184781 32.996922535693045 0 #
-117 vertex $-1 $85 $118 #
-118 point $-1 -25.21684969483924 -37.139117512712829 0 #
-119 vertex $-1 $99 $120 #
-120 point $-1 28.054159880270774 -38.258049112746662 0 #
-121 vertex $-1 $101 $122 #
-122 point $-1 18.627807727144486 25.569737149440286 0 #
-123 vertex $-1 $95 $124 #
-124 point $-1 18.627807727144486 25.569737149440286 15 #
-125 vertex $-1 $87 $126 #
-126 point $-1 28.054159880270774 -38.258049112746662 15 #
-127 vertex $-1 $87 $128 #
-128 point $-1 -43.208911784953656 -36.761203015071956 15 #
-129 vertex $-1 $91 $130 #
-130 point $-1 -6.5260277886184781 32.996922535693045 15 #
-131 vertex $-1 $109 $132 #
-132 point $-1 18.627807727144486 25.569737149440286 4.1676869636586309 #
-133 vertex $-1 $109 $134 #
-134 point $-1 -6.5260277886184781 32.996922535693045 4.1676869636586353 #
End-of-ACIS-data
